<svg width="32" height="32" viewBox="0 0 32 32" fill="none" xmlns="http://www.w3.org/2000/svg">
<path d="M30.7681 13.6628L18.1235 13.6622C17.5651 13.6622 17.1125 14.1136 17.1125 14.6706V18.7C17.1125 19.2569 17.5651 19.7084 18.1234 19.7084H25.2441C24.4643 21.7269 23.009 23.4174 21.1523 24.4915L24.1886 29.7346C29.0591 26.9247 31.9386 21.9945 31.9386 16.4755C31.9386 15.6897 31.8805 15.1279 31.7644 14.4954C31.6761 14.0148 31.2578 13.6628 30.7681 13.6628Z" fill="#167EE6"/>
<path d="M16.4382 25.7624C12.9535 25.7624 9.91136 23.8632 8.2775 21.0527L3.02167 24.0746C5.69633 28.6988 10.7068 31.8127 16.4382 31.8127C19.2498 31.8127 21.9028 31.0575 24.1882 29.7415V29.7343L21.1519 24.4912C19.7631 25.2948 18.156 25.7624 16.4382 25.7624Z" fill="#12B347"/>
<path d="M24.1884 29.7418V29.7346L21.1521 24.4915C19.7633 25.2949 18.1563 25.7626 16.4384 25.7626V31.8129C19.25 31.8129 21.9031 31.0578 24.1884 29.7418Z" fill="#0F993E"/>
<path d="M7.00358 16.3509C7.00358 14.6375 7.47233 13.0345 8.27766 11.6491L3.02183 8.6272C1.69531 10.8998 0.938354 13.539 0.938354 16.3509C0.938354 19.1628 1.69531 21.802 3.02183 24.0746L8.27766 21.0527C7.47233 19.6673 7.00358 18.0643 7.00358 16.3509Z" fill="#FFD500"/>
<path d="M16.4382 6.93955C18.7106 6.93955 20.7979 7.74502 22.4282 9.08482C22.8304 9.41531 23.415 9.39146 23.7834 9.02394L26.6455 6.16894C27.0635 5.75196 27.0337 5.0694 26.5872 4.68298C23.8556 2.31908 20.3015 0.889282 16.4382 0.889282C10.7068 0.889282 5.69633 4.0032 3.02167 8.62737L8.2775 11.6493C9.91136 8.83882 12.9535 6.93955 16.4382 6.93955Z" fill="#FF4B26"/>
<path d="M22.4284 9.08482C22.8306 9.41531 23.4152 9.39146 23.7836 9.02394L26.6457 6.16894C27.0636 5.75196 27.0338 5.0694 26.5874 4.68298C23.8558 2.31901 20.3017 0.889282 16.4384 0.889282V6.93955C18.7107 6.93955 20.798 7.74502 22.4284 9.08482Z" fill="#D93F21"/>
</svg>
