<svg width="49" height="38" viewBox="0 0 49 38" fill="none" xmlns="http://www.w3.org/2000/svg">
<path d="M17.6969 3.34247H30.6367V26.2743H17.6969V3.34247Z" fill="#FF5F00"/>
<path d="M8.9473 37.8168V35.386C8.9473 34.4539 8.37208 33.8464 7.38611 33.8464C6.89322 33.8464 6.35916 34.0084 5.9894 34.5352C5.70197 34.0894 5.29123 33.8464 4.67502 33.8464C4.2641 33.8464 3.85354 33.9678 3.52476 34.4135V33.9274H2.66211V37.8168H3.52476V35.6695C3.52476 34.9809 3.89452 34.6566 4.46975 34.6566C5.0446 34.6566 5.3324 35.0213 5.3324 35.6695V37.8168H6.19505V35.6695C6.19505 34.9809 6.60561 34.6566 7.13966 34.6566C7.71489 34.6566 8.00232 35.0213 8.00232 35.6695V37.8168H8.9473ZM21.7226 33.9274H20.3261V32.7525H19.4634V33.9274H18.6829V34.697H19.4632V36.4799C19.4632 37.3713 19.833 37.8979 20.819 37.8979C21.1887 37.8979 21.5993 37.7764 21.8871 37.6144L21.6404 36.885C21.394 37.047 21.1066 37.0876 20.9011 37.0876C20.4904 37.0876 20.3261 36.8446 20.3261 36.4393V34.697H21.7226V33.9274ZM29.0347 33.8462C28.5418 33.8462 28.2132 34.0894 28.0078 34.4135V33.9274H27.1451V37.8168H28.0078V35.629C28.0078 34.9809 28.2952 34.6162 28.8293 34.6162C28.9936 34.6162 29.199 34.6568 29.3633 34.6972L29.6098 33.887C29.4455 33.8464 29.199 33.8464 29.0347 33.8464V33.8462ZM17.9846 34.2515C17.5736 33.9678 16.9986 33.8464 16.3824 33.8464C15.3966 33.8464 14.7394 34.3325 14.7394 35.1023C14.7394 35.7507 15.2323 36.1152 16.095 36.2368L16.5057 36.2774C16.9576 36.3582 17.2041 36.4799 17.2041 36.6825C17.2041 36.966 16.8755 37.1687 16.3002 37.1687C15.7252 37.1687 15.2733 36.966 14.9857 36.7635L14.5749 37.4117C15.0268 37.7358 15.643 37.8979 16.2591 37.8979C17.4093 37.8979 18.0667 37.3713 18.0667 36.6419C18.0667 35.9531 17.5326 35.5884 16.711 35.467L16.3002 35.4264C15.9305 35.3858 15.643 35.305 15.643 35.0619C15.643 34.7782 15.9305 34.6162 16.3824 34.6162C16.8755 34.6162 17.3684 34.8186 17.6148 34.9403L17.9846 34.2515ZM40.9066 33.8464C40.4135 33.8464 40.0849 34.0894 39.8794 34.4135V33.9274H39.0168V37.8168H39.8794V35.629C39.8794 34.9809 40.167 34.6162 40.7009 34.6162C40.8654 34.6162 41.0709 34.6568 41.2352 34.6972L41.4816 33.887C41.3173 33.8464 41.0709 33.8464 40.9066 33.8464ZM29.8974 35.8721C29.8974 37.047 30.7189 37.8979 31.9924 37.8979C32.5675 37.8979 32.9782 37.7764 33.389 37.4523L32.9782 36.7635C32.6496 37.0066 32.321 37.128 31.9513 37.128C31.2529 37.128 30.76 36.6419 30.76 35.8721C30.76 35.1429 31.2529 34.6566 31.9513 34.6162C32.321 34.6162 32.6496 34.7376 32.9782 34.9809L33.389 34.2921C32.9782 33.9678 32.5675 33.8464 31.9924 33.8464C30.7189 33.8464 29.8974 34.6972 29.8974 35.8721ZM37.8667 35.8721V33.9274H37.0041V34.4135C36.7164 34.049 36.3057 33.8464 35.7716 33.8464C34.6625 33.8464 33.7999 34.6972 33.7999 35.8721C33.7999 37.047 34.6625 37.8979 35.7716 37.8979C36.3467 37.8979 36.7576 37.6954 37.0041 37.3307V37.8168H37.8667V35.8721ZM34.7035 35.8721C34.7035 35.1833 35.1554 34.6162 35.8948 34.6162C36.5931 34.6162 37.0862 35.1429 37.0862 35.8721C37.0862 36.5609 36.5931 37.128 35.8948 37.128C35.1554 37.0874 34.7035 36.5609 34.7035 35.8721ZM24.3929 33.8464C23.2426 33.8464 22.4209 34.6566 22.4209 35.8721C22.4209 37.0876 23.2424 37.8979 24.4339 37.8979C25.0089 37.8979 25.5841 37.7358 26.036 37.3713L25.6251 36.7635C25.2965 37.0066 24.8858 37.1687 24.475 37.1687C23.941 37.1687 23.4069 36.9256 23.2836 36.2366H26.2003V35.9127C26.2415 34.6566 25.502 33.8464 24.3927 33.8464H24.3929ZM24.3929 34.5756C24.9267 34.5756 25.2967 34.8998 25.3787 35.5076H23.3248C23.4069 34.9809 23.7767 34.5756 24.3929 34.5756ZM45.7949 35.8721V32.3878H44.9322V34.4135C44.6446 34.049 44.2339 33.8464 43.6998 33.8464C42.5907 33.8464 41.7281 34.6972 41.7281 35.8721C41.7281 37.047 42.5907 37.8979 43.6998 37.8979C44.275 37.8979 44.6858 37.6954 44.9322 37.3307V37.8168H45.7949V35.8721ZM42.6319 35.8721C42.6319 35.1833 43.0836 34.6162 43.8231 34.6162C44.5215 34.6162 45.0144 35.1429 45.0144 35.8721C45.0144 36.5609 44.5215 37.128 43.8231 37.128C43.0836 37.0874 42.6319 36.5609 42.6319 35.8721ZM13.7944 35.8721V33.9274H12.9318V34.4135C12.6442 34.049 12.2334 33.8464 11.6994 33.8464C10.5903 33.8464 9.72762 34.6972 9.72762 35.8721C9.72762 37.047 10.5903 37.8979 11.6994 37.8979C12.2746 37.8979 12.6853 37.6954 12.9318 37.3307V37.8168H13.7944V35.8721ZM10.5903 35.8721C10.5903 35.1833 11.0422 34.6162 11.7815 34.6162C12.4799 34.6162 12.9729 35.1429 12.9729 35.8721C12.9729 36.5609 12.4799 37.128 11.7815 37.128C11.0422 37.0874 10.5903 36.5609 10.5903 35.8721Z" fill="white"/>
<path d="M18.5182 14.8085C18.5182 10.1493 20.7364 6.01657 24.1458 3.34247C21.6402 1.39775 18.4772 0.222839 15.0266 0.222839C6.85164 0.222839 0.238037 6.74577 0.238037 14.8085C0.238037 22.871 6.85164 29.3942 15.0264 29.3942C18.477 29.3942 21.64 28.2193 24.1458 26.2743C20.7364 23.6409 18.5182 19.4677 18.5182 14.8085Z" fill="#EB001B"/>
<path d="M48.0948 14.8085C48.0948 22.871 41.4812 29.3942 33.3064 29.3942C29.8558 29.3942 26.6928 28.2193 24.187 26.2743C27.6376 23.6004 29.8148 19.4677 29.8148 14.8085C29.8148 10.1493 27.5964 6.01657 24.187 3.34247C26.6926 1.39775 29.8558 0.222839 33.3064 0.222839C41.4812 0.222839 48.095 6.78638 48.095 14.8085H48.0948Z" fill="#F79E1B"/>
</svg>
