<svg width="65" height="73" viewBox="0 0 65 73" fill="none" xmlns="http://www.w3.org/2000/svg">
<path d="M65 18.8772V18.9471L62.657 66.0416L62.6357 66.44C62.3524 69.7454 59.6643 72.411 56.3478 72.5H56.1071L8.15163 72.4958C4.89055 72.375 2.49427 69.7412 2.16624 66.4802L2.13429 65.8933L1.97679e-08 18.9853C1.97679e-08 18.9514 1.97679e-08 18.9153 1.97679e-08 18.8793C-6.14399e-05 18.5162 0.143191 18.1675 0.398934 17.9083C0.654677 17.6492 1.00247 17.5002 1.36748 17.4936H16.4737C16.8443 7.75938 23.8755 0 32.4957 0C41.116 0 48.1493 7.75938 48.5178 17.4936H63.607C63.7898 17.4933 63.9709 17.5289 64.1399 17.5983C64.3089 17.6677 64.4625 17.7696 64.5919 17.8981C64.7212 18.0266 64.8239 18.1792 64.8939 18.3472C64.9639 18.5152 65 18.6953 65 18.8772ZM44.4708 54.2627C45.1673 48.5862 41.4887 44.965 31.7864 41.8841C27.0876 40.2886 24.8745 38.1994 24.9256 35.3156C25.1216 32.1372 28.1079 29.8064 32.0676 29.7259C35.1869 29.7582 38.2293 30.6924 40.8242 32.4148C41.1777 32.6267 41.4248 32.6013 41.625 32.3004C41.8998 31.8597 42.5814 30.8066 42.8093 30.4273C42.9648 30.1815 42.9947 29.8615 42.5963 29.5797C41.6496 28.9617 40.6521 28.4244 39.6143 27.9736C37.201 26.9533 34.6067 26.4245 31.9845 26.4183C26.1866 26.4417 21.6198 30.0904 21.2385 34.9575C20.99 38.4706 22.7409 41.3184 26.4912 43.5009C27.2857 43.9606 31.5926 45.6642 33.3073 46.194C38.6941 47.8636 41.493 50.8555 40.8327 54.3432C40.2363 57.5067 36.89 59.5493 32.2763 59.6129C28.6191 59.4731 25.3282 57.9898 22.7743 56.0108C22.7104 55.9642 22.3909 55.7163 22.3483 55.6824C22.033 55.4366 21.688 55.4535 21.4792 55.7713C21.3237 56.0044 20.3375 57.422 20.0883 57.7949C19.854 58.1212 19.9797 58.3013 20.2225 58.5026C21.2923 59.3893 22.4466 60.1699 23.6689 60.8334C26.336 62.1829 29.2686 62.9331 32.2593 63.0307C34.4133 63.1316 36.5636 62.7665 38.5621 61.9606C41.8913 60.5791 44.0405 57.7716 44.4708 54.2691V54.2627ZM20.8573 17.4915H44.1364C43.8957 10.1198 38.7772 4.23143 32.4957 4.23143C26.2143 4.23143 21.0958 10.1198 20.8573 17.4915Z" fill="#EE4D2D"/>
</svg>
